<svg width="266" height="71" viewBox="0 0 266 71" fill="none" xmlns="http://www.w3.org/2000/svg">
<path d="M18.1253 34.32C18.0986 34.4 18.112 34.48 18.1653 34.56C18.2186 34.64 18.2853 34.68 18.3653 34.68H25.0053C25.0853 34.68 25.152 34.64 25.2053 34.56C25.2586 34.48 25.272 34.4 25.2453 34.32L21.7253 21.76C21.7253 21.7333 21.712 21.72 21.6853 21.72C21.6586 21.72 21.6453 21.7333 21.6453 21.76L18.1253 34.32ZM11.2853 46C10.7253 46 10.2853 45.7733 9.96531 45.32C9.64531 44.8667 9.57865 44.3733 9.76531 43.84L18.0453 18.96C18.2853 18.32 18.672 17.8 19.2053 17.4C19.7653 17 20.3786 16.8 21.0453 16.8H22.4853C23.1786 16.8 23.792 17 24.3253 17.4C24.8853 17.8 25.272 18.32 25.4853 18.96L33.7653 43.84C33.952 44.3733 33.8853 44.8667 33.5653 45.32C33.2453 45.7733 32.8053 46 32.2453 46H30.8053C30.1653 46 29.5653 45.8 29.0053 45.4C28.472 44.9733 28.112 44.44 27.9253 43.8L26.6453 39.28C26.6186 39.0667 26.472 38.96 26.2053 38.96H17.1653C16.9253 38.96 16.7786 39.0667 16.7253 39.28L15.4453 43.8C15.2853 44.44 14.9253 44.9733 14.3653 45.4C13.832 45.8 13.232 46 12.5653 46H11.2853ZM42.6181 37.04V42.36C42.6181 42.5733 42.7381 42.7067 42.9781 42.76C43.2981 42.8133 43.8048 42.84 44.4981 42.84C47.6715 42.84 49.2581 41.7733 49.2581 39.64C49.2581 37.6933 47.6315 36.72 44.3781 36.72H42.9781C42.7381 36.72 42.6181 36.8267 42.6181 37.04ZM42.6181 28.84V33.12C42.6181 33.3333 42.7381 33.44 42.9781 33.44H44.2581C45.5648 33.44 46.5915 33.2 47.3381 32.72C48.1115 32.24 48.4981 31.5867 48.4981 30.76C48.4981 29.16 47.1248 28.36 44.3781 28.36C44.0581 28.36 43.5781 28.3867 42.9381 28.44C42.7248 28.4933 42.6181 28.6267 42.6181 28.84ZM39.5781 46.08C38.9381 46.0267 38.4048 45.76 37.9781 45.28C37.5515 44.7733 37.3381 44.2 37.3381 43.56V27.64C37.3381 26.9733 37.5515 26.4 37.9781 25.92C38.4048 25.44 38.9515 25.1733 39.6181 25.12C41.1648 24.9867 42.6048 24.92 43.9381 24.92C50.2848 24.92 53.4581 26.6533 53.4581 30.12C53.4581 31.32 53.0181 32.3467 52.1381 33.2C51.2848 34.0267 50.1115 34.5733 48.6181 34.84L48.5781 34.88H48.6181C50.4048 35.12 51.8048 35.7067 52.8181 36.64C53.8315 37.5467 54.3381 38.6667 54.3381 40C54.3381 44.1867 50.9781 46.28 44.2581 46.28C42.8181 46.28 41.2581 46.2133 39.5781 46.08ZM59.5063 29.28C58.9463 29.28 58.4663 29.08 58.0663 28.68C57.6663 28.28 57.4663 27.8 57.4663 27.24C57.4663 26.68 57.6663 26.2 58.0663 25.8C58.4663 25.4 58.9463 25.2 59.5063 25.2H73.9863C74.5463 25.2 75.0263 25.4 75.4263 25.8C75.8263 26.2 76.0263 26.68 76.0263 27.24C76.0263 27.8 75.8263 28.28 75.4263 28.68C75.0263 29.08 74.5463 29.28 73.9863 29.28H69.8663C69.6263 29.28 69.5063 29.3867 69.5063 29.6V43.72C69.5063 44.3333 69.2796 44.8667 68.8263 45.32C68.3729 45.7733 67.8396 46 67.2263 46H66.2663C65.6529 46 65.1196 45.7733 64.6663 45.32C64.2129 44.8667 63.9863 44.3333 63.9863 43.72V29.6C63.9863 29.3867 63.8663 29.28 63.6263 29.28H59.5063ZM92.5859 30.36C91.8126 29.24 90.6393 28.68 89.0659 28.68C87.4926 28.68 86.3059 29.24 85.5059 30.36C84.7326 31.4533 84.3459 33.2 84.3459 35.6C84.3459 38 84.7326 39.76 85.5059 40.88C86.3059 41.9733 87.4926 42.52 89.0659 42.52C90.6393 42.52 91.8126 41.9733 92.5859 40.88C93.3859 39.76 93.7859 38 93.7859 35.6C93.7859 33.2 93.3859 31.4533 92.5859 30.36ZM96.5059 43.6C94.7459 45.4667 92.2659 46.4 89.0659 46.4C85.8659 46.4 83.3726 45.4667 81.5859 43.6C79.8259 41.7067 78.9459 39.04 78.9459 35.6C78.9459 32.16 79.8259 29.5067 81.5859 27.64C83.3726 25.7467 85.8659 24.8 89.0659 24.8C92.2659 24.8 94.7459 25.7467 96.5059 27.64C98.2926 29.5067 99.1859 32.16 99.1859 35.6C99.1859 39.04 98.2926 41.7067 96.5059 43.6Z" fill="#B30016"/>
<path d="M129.59 46C128.977 46 128.443 45.7733 127.99 45.32C127.563 44.8667 127.35 44.3333 127.35 43.72V27.48C127.35 26.8667 127.563 26.3333 127.99 25.88C128.443 25.4267 128.977 25.2 129.59 25.2H130.71C132.23 25.2 133.323 25.88 133.99 27.24L138.79 37C138.79 37.0267 138.803 37.04 138.83 37.04L138.87 37L143.67 27.24C144.337 25.88 145.43 25.2 146.95 25.2H148.15C148.763 25.2 149.283 25.4267 149.71 25.88C150.163 26.3333 150.39 26.8667 150.39 27.48V43.72C150.39 44.3333 150.163 44.8667 149.71 45.32C149.283 45.7733 148.763 46 148.15 46H147.43C146.817 46 146.283 45.7733 145.83 45.32C145.377 44.8667 145.15 44.3333 145.15 43.72V32.28H145.07L141.83 38.92C141.217 40.1467 140.217 40.76 138.83 40.76C137.443 40.76 136.443 40.1467 135.83 38.92L132.55 32.28H132.51H132.47V43.72C132.47 44.3333 132.243 44.8667 131.79 45.32C131.363 45.7733 130.843 46 130.23 46H129.59ZM158.185 46C157.571 46 157.038 45.7733 156.585 45.32C156.131 44.8667 155.905 44.3333 155.905 43.72V27.48C155.905 26.8667 156.131 26.3333 156.585 25.88C157.038 25.4267 157.571 25.2 158.185 25.2H171.705C172.318 25.2 172.851 25.4267 173.305 25.88C173.758 26.3333 173.985 26.8667 173.985 27.48V43.72C173.985 44.3333 173.758 44.8667 173.305 45.32C172.851 45.7733 172.318 46 171.705 46H170.985C170.371 46 169.838 45.7733 169.385 45.32C168.931 44.8667 168.705 44.3333 168.705 43.72V29.56C168.705 29.32 168.598 29.2 168.385 29.2H161.505C161.291 29.2 161.185 29.32 161.185 29.56V43.72C161.185 44.3333 160.958 44.8667 160.505 45.32C160.051 45.7733 159.518 46 158.905 46H158.185ZM191.738 30.36C190.965 29.24 189.792 28.68 188.218 28.68C186.645 28.68 185.458 29.24 184.658 30.36C183.885 31.4533 183.498 33.2 183.498 35.6C183.498 38 183.885 39.76 184.658 40.88C185.458 41.9733 186.645 42.52 188.218 42.52C189.792 42.52 190.965 41.9733 191.738 40.88C192.538 39.76 192.938 38 192.938 35.6C192.938 33.2 192.538 31.4533 191.738 30.36ZM195.658 43.6C193.898 45.4667 191.418 46.4 188.218 46.4C185.018 46.4 182.525 45.4667 180.738 43.6C178.978 41.7067 178.098 39.04 178.098 35.6C178.098 32.16 178.978 29.5067 180.738 27.64C182.525 25.7467 185.018 24.8 188.218 24.8C191.418 24.8 193.898 25.7467 195.658 27.64C197.445 29.5067 198.338 32.16 198.338 35.6C198.338 39.04 197.445 41.7067 195.658 43.6ZM207.747 32.88V38.32C207.747 39.3867 208.2 40.3333 209.107 41.16C210.04 41.9867 211.12 42.4 212.347 42.4C213.76 42.4 214.88 41.8267 215.707 40.68C216.534 39.5333 216.947 37.84 216.947 35.6C216.947 31.0667 215.414 28.8 212.347 28.8C211.12 28.8 210.04 29.2133 209.107 30.04C208.2 30.8667 207.747 31.8133 207.747 32.88ZM204.747 54.8C204.134 54.8 203.6 54.5733 203.147 54.12C202.694 53.6667 202.467 53.1333 202.467 52.52V27.48C202.467 26.8667 202.694 26.3333 203.147 25.88C203.6 25.4267 204.134 25.2 204.747 25.2H205.227C205.867 25.2 206.414 25.4267 206.867 25.88C207.32 26.3067 207.56 26.84 207.587 27.48V27.76C207.587 27.7867 207.6 27.8 207.627 27.8C207.654 27.8 207.68 27.7867 207.707 27.76C208.667 26.6933 209.627 25.9333 210.587 25.48C211.547 25.0267 212.667 24.8 213.947 24.8C216.454 24.8 218.454 25.7467 219.947 27.64C221.44 29.5067 222.187 32.16 222.187 35.6C222.187 38.9333 221.4 41.5733 219.827 43.52C218.28 45.44 216.32 46.4 213.947 46.4C211.627 46.4 209.614 45.56 207.907 43.88C207.88 43.8533 207.854 43.84 207.827 43.84C207.8 43.84 207.787 43.8533 207.787 43.88V52.52C207.787 53.1333 207.56 53.6667 207.107 54.12C206.68 54.5733 206.16 54.8 205.547 54.8H204.747ZM227.33 29.28C226.77 29.28 226.29 29.08 225.89 28.68C225.49 28.28 225.29 27.8 225.29 27.24C225.29 26.68 225.49 26.2 225.89 25.8C226.29 25.4 226.77 25.2 227.33 25.2H241.81C242.37 25.2 242.85 25.4 243.25 25.8C243.65 26.2 243.85 26.68 243.85 27.24C243.85 27.8 243.65 28.28 243.25 28.68C242.85 29.08 242.37 29.28 241.81 29.28H237.69C237.45 29.28 237.33 29.3867 237.33 29.6V43.72C237.33 44.3333 237.104 44.8667 236.65 45.32C236.197 45.7733 235.664 46 235.05 46H234.09C233.477 46 232.944 45.7733 232.49 45.32C232.037 44.8667 231.81 44.3333 231.81 43.72V29.6C231.81 29.3867 231.69 29.28 231.45 29.28H227.33Z" fill="#B30016"/>
<path d="M103.818 50.9659C103.205 50.9659 102.671 50.7779 102.218 50.4018C101.791 50.0258 101.578 49.5833 101.578 49.0745V28.6345C101.578 28.1258 101.791 27.6833 102.218 27.3073C102.671 26.9312 103.205 26.7432 103.818 26.7432H104.698C105.311 26.7432 105.845 26.9312 106.298 27.3073C106.751 27.6833 106.978 28.1258 106.978 28.6345V43.2014C106.978 43.2235 106.991 43.2345 107.018 43.2345C107.045 43.2345 106.978 36.5221 106.978 36.5L118 18C118.72 16.8939 118.956 15.8341 120.476 15.8341H121.356C121.969 15.8341 122.489 16.0221 122.916 16.3982C123.369 16.7742 123.596 17.2167 123.596 17.7255L123.418 49.0745C123.418 49.5833 123.191 50.0258 122.738 50.4018C122.311 50.7779 121.791 50.9659 121.178 50.9659H120.298C119.685 50.9659 119.151 50.7779 118.698 50.4018C118.245 50.0258 118.018 49.5833 118.018 49.0745V34.5077C118.018 34.4856 118.005 34.4745 117.978 34.4745C117.951 34.4745 117.938 34.4856 117.938 34.5077L108.058 49.3068C107.338 50.4129 106.218 50.9659 104.698 50.9659H103.818Z" fill="#B30016"/>
<path d="M101 9.48864C101 8.1142 102.343 7 104 7C105.657 7 107 8.1142 107 9.48864V48.4773C107 49.8517 105.657 50.9659 104 50.9659C102.343 50.9659 101 49.8517 101 48.4773V9.48864Z" fill="#120075"/>
<path d="M118 18C119 17 119.521 16 121.178 16C122.835 16 124.178 17.1142 124.178 18.4886L124 68.0114C124 69.3858 122.657 70.5 121 70.5C119.343 70.5 118 69.3858 118 68.0114V18Z" fill="#B30016"/>
</svg>
