<svg width="390" height="104" viewBox="0 0 390 104" fill="none" xmlns="http://www.w3.org/2000/svg">
<path d="M26.5747 50.2716C26.5355 50.3887 26.5552 50.5059 26.6333 50.6231C26.7115 50.7403 26.8093 50.7989 26.9266 50.7989H36.6619C36.7792 50.7989 36.877 50.7403 36.9551 50.6231C37.0333 50.5059 37.0529 50.3887 37.0138 50.2716L31.8529 31.8738C31.8529 31.8347 31.8334 31.8152 31.7942 31.8152C31.7551 31.8152 31.7356 31.8347 31.7356 31.8738L26.5747 50.2716ZM16.5461 67.3803C15.7251 67.3803 15.08 67.0482 14.6108 66.3842C14.1416 65.7202 14.0439 64.9975 14.3176 64.2163L26.4574 27.7724C26.8093 26.8349 27.3762 26.0732 28.1581 25.4873C28.9792 24.9014 29.8784 24.6085 30.8559 24.6085H32.9672C33.9837 24.6085 34.883 24.9014 35.6649 25.4873C36.486 26.0732 37.0529 26.8349 37.3657 27.7724L49.5055 64.2163C49.7793 64.9975 49.6815 65.7202 49.2123 66.3842C48.7431 67.0482 48.098 67.3803 47.277 67.3803H45.1657C44.2273 67.3803 43.3476 67.0873 42.5266 66.5014C41.7447 65.8764 41.2168 65.0952 40.9431 64.1577L39.0664 57.5369C39.0273 57.2245 38.8123 57.0682 38.4213 57.0682H25.1672C24.8153 57.0682 24.6002 57.2245 24.5221 57.5369L22.6454 64.1577C22.4108 65.0952 21.883 65.8764 21.0619 66.5014C20.28 67.0873 19.4003 67.3803 18.4228 67.3803H16.5461ZM62.4852 54.2558V62.0485C62.4852 62.3609 62.6611 62.5563 63.013 62.6344C63.4822 62.7124 64.2251 62.7516 65.2416 62.7516C69.8943 62.7516 72.2205 61.1891 72.2205 58.0642C72.2205 55.2127 69.8357 53.787 65.0656 53.787H63.013C62.6611 53.787 62.4852 53.9433 62.4852 54.2558ZM62.4852 42.2445V48.5138C62.4852 48.8262 62.6611 48.9825 63.013 48.9825H64.8897C66.8055 48.9825 68.3109 48.631 69.4055 47.9279C70.5394 47.2248 71.1062 46.2678 71.1062 45.0569C71.1062 42.7132 69.0928 41.5414 65.0656 41.5414C64.5965 41.5414 63.8927 41.5805 62.9544 41.6586C62.6416 41.7367 62.4852 41.9321 62.4852 42.2445ZM58.028 67.4975C57.0897 67.4194 56.3078 67.0287 55.6822 66.3256C55.0567 65.5834 54.7438 64.7437 54.7438 63.8062V40.4868C54.7438 39.5102 55.0567 38.6704 55.6822 37.9673C56.3078 37.2642 57.1093 36.8736 58.0867 36.7955C60.3544 36.6002 62.4657 36.5025 64.4205 36.5025C73.7258 36.5025 78.3784 39.0415 78.3784 44.1194C78.3784 45.8772 77.7333 47.3811 76.4431 48.631C75.192 49.8419 73.4718 50.6426 71.2822 51.0332L71.2235 51.0918H71.2822C73.9018 51.4434 75.9544 52.3028 77.4401 53.6699C78.9259 54.998 79.6687 56.6385 79.6687 58.5916C79.6687 64.7242 74.7423 67.7904 64.8897 67.7904C62.7784 67.7904 60.4912 67.6927 58.028 67.4975ZM87.2461 42.889C86.425 42.889 85.7213 42.5961 85.1348 42.0101C84.5483 41.4242 84.2551 40.7211 84.2551 39.9008C84.2551 39.0806 84.5483 38.3775 85.1348 37.7916C85.7213 37.2056 86.425 36.9127 87.2461 36.9127H108.476C109.297 36.9127 110.001 37.2056 110.587 37.7916C111.174 38.3775 111.467 39.0806 111.467 39.9008C111.467 40.7211 111.174 41.4242 110.587 42.0101C110.001 42.5961 109.297 42.889 108.476 42.889H102.436C102.084 42.889 101.908 43.0453 101.908 43.3577V64.0406C101.908 64.9389 101.575 65.7202 100.911 66.3842C100.246 67.0482 99.4641 67.3803 98.5649 67.3803H97.1574C96.258 67.3803 95.4761 67.0482 94.8115 66.3842C94.1467 65.7202 93.8145 64.9389 93.8145 64.0406V43.3577C93.8145 43.0453 93.6386 42.889 93.2867 42.889H87.2461ZM135.746 44.471C134.612 42.8304 132.892 42.0101 130.585 42.0101C128.279 42.0101 126.539 42.8304 125.366 44.471C124.232 46.0724 123.665 48.631 123.665 52.1465C123.665 55.662 124.232 58.24 125.366 59.8806C126.539 61.482 128.279 62.2828 130.585 62.2828C132.892 62.2828 134.612 61.482 135.746 59.8806C136.919 58.24 137.506 55.662 137.506 52.1465C137.506 48.631 136.919 46.0724 135.746 44.471ZM141.494 63.8648C138.913 66.5991 135.277 67.9662 130.585 67.9662C125.894 67.9662 122.238 66.5991 119.618 63.8648C117.038 61.0915 115.748 57.1854 115.748 52.1465C115.748 47.1076 117.038 43.2211 119.618 40.4868C122.238 37.7135 125.894 36.3268 130.585 36.3268C135.277 36.3268 138.913 37.7135 141.494 40.4868C144.113 43.2211 145.423 47.1076 145.423 52.1465C145.423 57.1854 144.113 61.0915 141.494 63.8648Z" fill="#B30016"/>
<path d="M190 67.3803C189.102 67.3803 188.319 67.0482 187.655 66.3842C187.028 65.7202 186.716 64.9389 186.716 64.0406V40.2524C186.716 39.354 187.028 38.5727 187.655 37.9087C188.319 37.2447 189.102 36.9127 190 36.9127H191.643C193.871 36.9127 195.474 37.9087 196.452 39.9008L203.489 54.1972C203.489 54.2363 203.508 54.2558 203.548 54.2558L203.606 54.1972L210.644 39.9008C211.622 37.9087 213.224 36.9127 215.453 36.9127H217.212C218.111 36.9127 218.874 37.2447 219.5 37.9087C220.164 38.5727 220.497 39.354 220.497 40.2524V64.0406C220.497 64.9389 220.164 65.7202 219.5 66.3842C218.874 67.0482 218.111 67.3803 217.212 67.3803H216.157C215.258 67.3803 214.475 67.0482 213.811 66.3842C213.147 65.7202 212.814 64.9389 212.814 64.0406V47.2834H212.697L207.946 57.0096C207.048 58.8064 205.581 59.7048 203.548 59.7048C201.514 59.7048 200.048 58.8064 199.149 57.0096L194.34 47.2834H194.282H194.223V64.0406C194.223 64.9389 193.89 65.7202 193.226 66.3842C192.6 67.0482 191.837 67.3803 190.939 67.3803H190ZM231.925 67.3803C231.025 67.3803 230.244 67.0482 229.58 66.3842C228.914 65.7202 228.583 64.9389 228.583 64.0406V40.2524C228.583 39.354 228.914 38.5727 229.58 37.9087C230.244 37.2447 231.025 36.9127 231.925 36.9127H251.748C252.647 36.9127 253.428 37.2447 254.094 37.9087C254.758 38.5727 255.091 39.354 255.091 40.2524V64.0406C255.091 64.9389 254.758 65.7202 254.094 66.3842C253.428 67.0482 252.647 67.3803 251.748 67.3803H250.692C249.792 67.3803 249.011 67.0482 248.346 66.3842C247.681 65.7202 247.349 64.9389 247.349 64.0406V43.2992C247.349 42.9476 247.193 42.7718 246.88 42.7718H236.793C236.479 42.7718 236.324 42.9476 236.324 43.2992V64.0406C236.324 64.9389 235.991 65.7202 235.327 66.3842C234.661 67.0482 233.88 67.3803 232.981 67.3803H231.925ZM281.12 44.471C279.986 42.8304 278.266 42.0101 275.959 42.0101C273.652 42.0101 271.912 42.8304 270.739 44.471C269.606 46.0724 269.038 48.631 269.038 52.1465C269.038 55.662 269.606 58.24 270.739 59.8806C271.912 61.482 273.652 62.2828 275.959 62.2828C278.266 62.2828 279.986 61.482 281.12 59.8806C282.293 58.24 282.879 55.662 282.879 52.1465C282.879 48.631 282.293 46.0724 281.12 44.471ZM286.867 63.8648C284.287 66.5991 280.65 67.9662 275.959 67.9662C271.267 67.9662 267.612 66.5991 264.992 63.8648C262.411 61.0915 261.121 57.1853 261.121 52.1465C261.121 47.1076 262.411 43.2211 264.992 40.4868C267.612 37.7135 271.267 36.3268 275.959 36.3268C280.65 36.3268 284.287 37.7135 286.867 40.4868C289.487 43.2211 290.796 47.1076 290.796 52.1465C290.796 57.1853 289.487 61.0915 286.867 63.8648ZM304.591 48.1623V56.1307C304.591 57.6932 305.256 59.0798 306.585 60.2907C307.953 61.5016 309.537 62.107 311.336 62.107C313.408 62.107 315.05 61.2673 316.262 59.5876C317.475 57.9079 318.08 55.4276 318.08 52.1465C318.08 45.5061 315.833 42.1859 311.336 42.1859C309.537 42.1859 307.953 42.7913 306.585 44.0023C305.256 45.2132 304.591 46.5998 304.591 48.1623ZM300.193 80.2704C299.294 80.2704 298.511 79.9384 297.847 79.2744C297.183 78.6104 296.85 77.8291 296.85 76.9307V40.2524C296.85 39.354 297.183 38.5727 297.847 37.9087C298.511 37.2447 299.294 36.9127 300.193 36.9127H300.897C301.835 36.9127 302.637 37.2447 303.301 37.9087C303.965 38.5338 304.317 39.3149 304.357 40.2524V40.6625C304.357 40.7016 304.376 40.7211 304.416 40.7211C304.455 40.7211 304.493 40.7016 304.533 40.6625C305.94 39.1 307.348 37.9868 308.755 37.3228C310.163 36.6588 311.805 36.3268 313.682 36.3268C317.357 36.3268 320.29 37.7135 322.479 40.4868C324.668 43.2211 325.763 47.1076 325.763 52.1465C325.763 57.0291 324.609 60.8961 322.303 63.7476C320.035 66.56 317.161 67.9662 313.682 67.9662C310.28 67.9662 307.329 66.7358 304.826 64.2749C304.786 64.2358 304.748 64.2163 304.709 64.2163C304.669 64.2163 304.65 64.2358 304.65 64.2749V76.9307C304.65 77.8291 304.317 78.6104 303.653 79.2744C303.027 79.9384 302.265 80.2704 301.366 80.2704H300.193ZM333.303 42.889C332.482 42.889 331.779 42.5961 331.192 42.0101C330.606 41.4242 330.312 40.7211 330.312 39.9008C330.312 39.0806 330.606 38.3775 331.192 37.7915C331.779 37.2056 332.482 36.9127 333.303 36.9127H354.533C355.355 36.9127 356.058 37.2056 356.645 37.7915C357.231 38.3775 357.524 39.0806 357.524 39.9008C357.524 40.7211 357.231 41.4242 356.645 42.0101C356.058 42.5961 355.355 42.889 354.533 42.889H348.493C348.141 42.889 347.965 43.0453 347.965 43.3577V64.0406C347.965 64.9389 347.634 65.7202 346.968 66.3842C346.304 67.0482 345.522 67.3803 344.622 67.3803H343.215C342.316 67.3803 341.534 67.0482 340.869 66.3842C340.205 65.7202 339.872 64.9389 339.872 64.0406V43.3577C339.872 43.0453 339.696 42.889 339.344 42.889H333.303Z" fill="#B30016"/>
<path d="M152.214 74.6543C151.316 74.6543 150.533 74.3789 149.869 73.828C149.242 73.2772 148.93 72.6291 148.93 71.8838V41.9435C148.93 41.1984 149.242 40.5502 149.869 39.9994C150.533 39.4485 151.316 39.1731 152.214 39.1731H153.505C154.403 39.1731 155.186 39.4485 155.85 39.9994C156.515 40.5502 156.847 41.1984 156.847 41.9435V63.2809C156.847 63.3133 156.867 63.3294 156.906 63.3294C156.946 63.3294 156.847 53.4972 156.847 53.4648L173.008 26.3662C174.063 24.746 174.409 23.1936 176.638 23.1936H177.928C178.827 23.1936 179.589 23.469 180.215 24.0199C180.879 24.5707 181.212 25.2188 181.212 25.9641L180.951 71.8838C180.951 72.6291 180.618 73.2772 179.954 73.828C179.328 74.3789 178.566 74.6543 177.667 74.6543H176.377C175.478 74.6543 174.695 74.3789 174.031 73.828C173.367 73.2772 173.034 72.6291 173.034 71.8838V50.5465C173.034 50.5141 173.015 50.4979 172.975 50.4979C172.936 50.4979 172.917 50.5141 172.917 50.5465L158.431 72.224C157.375 73.8443 155.733 74.6543 153.505 74.6543H152.214Z" fill="#B30016"/>
<path d="M148.083 13.8989C148.083 11.8856 150.052 10.2535 152.481 10.2535C154.911 10.2535 156.88 11.8856 156.88 13.8989V71.009C156.88 73.0222 154.911 74.6543 152.481 74.6543C150.052 74.6543 148.083 73.0222 148.083 71.009V13.8989Z" fill="#120075"/>
<path d="M173.008 26.3662C174.474 24.9014 175.238 23.4366 177.667 23.4366C180.096 23.4366 182.065 25.0687 182.065 27.0819L181.804 99.6223C181.804 101.636 179.835 103.268 177.406 103.268C174.977 103.268 173.008 101.636 173.008 99.6223V26.3662Z" fill="#B30016"/>
</svg>
