<svg width="24" height="64" viewBox="0 0 24 64" fill="none" xmlns="http://www.w3.org/2000/svg">
<path d="M2.81797 43.9659C2.20464 43.9659 1.6713 43.7779 1.21797 43.4018C0.791302 43.0258 0.577969 42.5833 0.577969 42.0745V21.6345C0.577969 21.1258 0.791302 20.6833 1.21797 20.3073C1.6713 19.9312 2.20464 19.7432 2.81797 19.7432H3.69797C4.3113 19.7432 4.84464 19.9312 5.29797 20.3073C5.7513 20.6833 5.97797 21.1258 5.97797 21.6345V36.2014C5.97797 36.2235 5.9913 36.2345 6.01797 36.2345C6.04464 36.2345 5.97797 29.5221 5.97797 29.5L17 11C17.72 9.89394 17.9559 8.83409 19.4759 8.83409H20.3559C20.9693 8.83409 21.4893 9.02212 21.9159 9.39818C22.3693 9.77424 22.5959 10.2167 22.5959 10.7255L22.418 42.0745C22.418 42.5833 22.1913 43.0258 21.738 43.4018C21.3113 43.7779 20.7913 43.9659 20.178 43.9659H19.298C18.6846 43.9659 18.1513 43.7779 17.698 43.4018C17.2446 43.0258 17.018 42.5833 17.018 42.0745V27.5077C17.018 27.4856 17.0046 27.4745 16.978 27.4745C16.9513 27.4745 16.938 27.4856 16.938 27.5077L7.05797 42.3068C6.33797 43.4129 5.21797 43.9659 3.69797 43.9659H2.81797Z" fill="#B30016"/>
<path d="M0 2.48864C0 1.1142 1.34315 0 3 0C4.65685 0 6 1.1142 6 2.48864V41.4773C6 42.8517 4.65685 43.9659 3 43.9659C1.34315 43.9659 0 42.8517 0 41.4773V2.48864Z" fill="#120075"/>
<path d="M17 11C18 10 18.5211 9 20.178 9C21.8348 9 23.178 10.1142 23.178 11.4886L23 61.0114C23 62.3858 21.6569 63.5 20 63.5C18.3431 63.5 17 62.3858 17 61.0114V11Z" fill="#B30016"/>
</svg>
